<svg width="24" height="24" viewBox="0 0 24 24" fill="none" xmlns="http://www.w3.org/2000/svg">
<path fill-rule="evenodd" clip-rule="evenodd" d="M10.9271 10.9315C11.464 11.8027 12.1974 12.536 13.0685 13.0729L13.8904 12.5798C14.2488 12.3647 14.7032 12.3953 15.0296 12.6564L16.6247 13.9325C16.848 14.1111 16.9841 14.3768 16.9987 14.6623C17.0133 14.9479 16.905 15.226 16.7011 15.4265L15.98 16.1355C14.9867 17.115 13.4494 17.2808 12.2701 16.5358C10.3464 15.2916 8.70849 13.6536 7.46428 11.73C6.71921 10.5506 6.88508 9.01332 7.86458 8.02002L8.57358 7.29891C8.77404 7.09503 9.05218 6.9867 9.33773 7.00131C9.62328 7.01591 9.88892 7.15205 10.0675 7.37532L11.3436 8.97044C11.6047 9.29684 11.6353 9.7512 11.4202 10.1096L10.9271 10.9315Z" stroke="currentColor" stroke-width="1.5" stroke-linecap="round" stroke-linejoin="round"/>
<path fill-rule="evenodd" clip-rule="evenodd" d="M6.8675 19.9863L4.1705 20.4371C4.00232 20.4651 3.83093 20.4102 3.71036 20.2897C3.58979 20.1691 3.53491 19.9977 3.563 19.8295L4.0136 17.1324C1.3819 13.0423 2.25734 7.62599 6.04356 4.57319C9.82979 1.52039 15.3085 1.81335 18.7476 5.25249C22.1867 8.69163 22.4796 14.1704 19.4267 17.9565C16.3739 21.7427 10.9576 22.6181 6.8675 19.9863Z" stroke="currentColor" stroke-width="1.5" stroke-linecap="round" stroke-linejoin="round"/>
</svg>
